<mxfile host="app.diagrams.net" modified="2022-11-04T02:02:03.426Z" agent="5.0 (Windows NT 10.0; Win64; x64) AppleWebKit/537.36 (KHTML, like Gecko) Chrome/107.0.0.0 Safari/537.36" etag="azByD8WgoALWQv-7ev1W" version="20.5.0" type="github">
  <diagram name="Page-1" id="e7e014a7-5840-1c2e-5031-d8a46d1fe8dd">
    <mxGraphModel dx="1093" dy="1427" grid="1" gridSize="10" guides="1" tooltips="1" connect="1" arrows="1" fold="1" page="1" pageScale="1" pageWidth="1169" pageHeight="826" background="none" math="0" shadow="0">
      <root>
        <mxCell id="0" />
        <mxCell id="1" parent="0" />
        <mxCell id="1AXarEj6DeR1PKGoGcP6-45" value="«Componente»&lt;br&gt;&lt;b&gt;Servidor&lt;/b&gt;" style="html=1;dropTarget=0;fillColor=#660033;gradientColor=#1A1A1A;strokeColor=#b85450;gradientDirection=north;fontColor=#FFFFFF;" vertex="1" parent="1">
          <mxGeometry x="450" y="230" width="180" height="90" as="geometry" />
        </mxCell>
        <mxCell id="1AXarEj6DeR1PKGoGcP6-46" value="" style="shape=module;jettyWidth=8;jettyHeight=4;fontColor=#FFFFFF;strokeColor=#FFFFFF;fillColor=#1A1A1A;" vertex="1" parent="1AXarEj6DeR1PKGoGcP6-45">
          <mxGeometry x="1" width="20" height="20" relative="1" as="geometry">
            <mxPoint x="-27" y="7" as="offset" />
          </mxGeometry>
        </mxCell>
        <mxCell id="1AXarEj6DeR1PKGoGcP6-47" value="«Componente»&lt;br&gt;&lt;b&gt;AppWeb&lt;/b&gt;" style="html=1;dropTarget=0;fillColor=#0066CC;gradientColor=#3399FF;strokeColor=#b85450;gradientDirection=south;fontColor=#FFFFFF;" vertex="1" parent="1">
          <mxGeometry x="20" y="230" width="180" height="90" as="geometry" />
        </mxCell>
        <mxCell id="1AXarEj6DeR1PKGoGcP6-48" value="" style="shape=module;jettyWidth=8;jettyHeight=4;fontColor=#FFFFFF;strokeColor=#FFFFFF;fillColor=#1A1A1A;" vertex="1" parent="1AXarEj6DeR1PKGoGcP6-47">
          <mxGeometry x="1" width="20" height="20" relative="1" as="geometry">
            <mxPoint x="-27" y="7" as="offset" />
          </mxGeometry>
        </mxCell>
        <mxCell id="1AXarEj6DeR1PKGoGcP6-49" value="«Componente»&lt;br&gt;&lt;b&gt;DB NoSQL&lt;/b&gt;" style="html=1;dropTarget=0;fillColor=#CCCC00;gradientColor=#FFFF00;strokeColor=#b85450;gradientDirection=south;fontColor=#000000;" vertex="1" parent="1">
          <mxGeometry x="450" y="-40" width="180" height="90" as="geometry" />
        </mxCell>
        <mxCell id="1AXarEj6DeR1PKGoGcP6-50" value="" style="shape=module;jettyWidth=8;jettyHeight=4;fontColor=#FFFFFF;strokeColor=#FFFFFF;fillColor=#1A1A1A;" vertex="1" parent="1AXarEj6DeR1PKGoGcP6-49">
          <mxGeometry x="1" width="20" height="20" relative="1" as="geometry">
            <mxPoint x="-27" y="7" as="offset" />
          </mxGeometry>
        </mxCell>
        <mxCell id="1AXarEj6DeR1PKGoGcP6-51" value="«Componente»&lt;br&gt;&lt;b&gt;Esp32&lt;/b&gt;" style="html=1;dropTarget=0;fillColor=#CC0000;gradientColor=#FF0000;strokeColor=#b85450;gradientDirection=south;fontColor=#FFFFFF;" vertex="1" parent="1">
          <mxGeometry x="870" y="230" width="180" height="90" as="geometry" />
        </mxCell>
        <mxCell id="1AXarEj6DeR1PKGoGcP6-52" value="" style="shape=module;jettyWidth=8;jettyHeight=4;fontColor=#FFFFFF;strokeColor=#FFFFFF;fillColor=#1A1A1A;" vertex="1" parent="1AXarEj6DeR1PKGoGcP6-51">
          <mxGeometry x="1" width="20" height="20" relative="1" as="geometry">
            <mxPoint x="-27" y="7" as="offset" />
          </mxGeometry>
        </mxCell>
        <mxCell id="1AXarEj6DeR1PKGoGcP6-53" value="" style="whiteSpace=wrap;html=1;aspect=fixed;gradientDirection=north;" vertex="1" parent="1">
          <mxGeometry x="847.5" y="263.75" width="22.5" height="22.5" as="geometry" />
        </mxCell>
        <mxCell id="1AXarEj6DeR1PKGoGcP6-54" value="" style="whiteSpace=wrap;html=1;aspect=fixed;gradientDirection=north;" vertex="1" parent="1">
          <mxGeometry x="630" y="263.75" width="22.5" height="22.5" as="geometry" />
        </mxCell>
        <mxCell id="1AXarEj6DeR1PKGoGcP6-55" value="" style="whiteSpace=wrap;html=1;aspect=fixed;gradientDirection=north;" vertex="1" parent="1">
          <mxGeometry x="427.5" y="263.75" width="22.5" height="22.5" as="geometry" />
        </mxCell>
        <mxCell id="1AXarEj6DeR1PKGoGcP6-56" value="" style="whiteSpace=wrap;html=1;aspect=fixed;gradientDirection=north;" vertex="1" parent="1">
          <mxGeometry x="528.75" y="207.5" width="22.5" height="22.5" as="geometry" />
        </mxCell>
        <mxCell id="1AXarEj6DeR1PKGoGcP6-57" value="" style="whiteSpace=wrap;html=1;aspect=fixed;gradientDirection=north;" vertex="1" parent="1">
          <mxGeometry x="528.75" y="50" width="22.5" height="22.5" as="geometry" />
        </mxCell>
        <mxCell id="1AXarEj6DeR1PKGoGcP6-58" value="" style="whiteSpace=wrap;html=1;aspect=fixed;gradientDirection=north;" vertex="1" parent="1">
          <mxGeometry x="200" y="263.75" width="22.5" height="22.5" as="geometry" />
        </mxCell>
        <mxCell id="1AXarEj6DeR1PKGoGcP6-67" value="" style="rounded=0;orthogonalLoop=1;jettySize=auto;html=1;endArrow=none;endFill=0;sketch=0;sourcePerimeterSpacing=0;targetPerimeterSpacing=0;fontColor=#000000;exitX=1;exitY=0.5;exitDx=0;exitDy=0;" edge="1" target="1AXarEj6DeR1PKGoGcP6-69" parent="1" source="1AXarEj6DeR1PKGoGcP6-54">
          <mxGeometry relative="1" as="geometry">
            <mxPoint x="820" y="290" as="sourcePoint" />
          </mxGeometry>
        </mxCell>
        <mxCell id="1AXarEj6DeR1PKGoGcP6-69" value="" style="ellipse;whiteSpace=wrap;html=1;align=center;aspect=fixed;resizable=0;points=[];outlineConnect=0;sketch=0;gradientDirection=north;" vertex="1" parent="1">
          <mxGeometry x="690" y="270" width="10" height="10" as="geometry" />
        </mxCell>
        <mxCell id="1AXarEj6DeR1PKGoGcP6-75" value="" style="rounded=0;orthogonalLoop=1;jettySize=auto;html=1;endArrow=halfCircle;endFill=0;endSize=6;strokeWidth=1;sketch=0;fontColor=#000000;exitX=0;exitY=0.5;exitDx=0;exitDy=0;" edge="1" parent="1" source="1AXarEj6DeR1PKGoGcP6-53">
          <mxGeometry relative="1" as="geometry">
            <mxPoint x="662.5" y="285" as="sourcePoint" />
            <mxPoint x="800" y="275" as="targetPoint" />
            <Array as="points" />
          </mxGeometry>
        </mxCell>
        <mxCell id="1AXarEj6DeR1PKGoGcP6-77" value="Mqtt:1883" style="endArrow=open;endSize=12;dashed=1;html=1;rounded=0;fontColor=#000000;" edge="1" parent="1" target="1AXarEj6DeR1PKGoGcP6-69">
          <mxGeometry x="0.0909" y="-15" width="160" relative="1" as="geometry">
            <mxPoint x="810" y="275" as="sourcePoint" />
            <mxPoint x="730" y="250" as="targetPoint" />
            <mxPoint as="offset" />
          </mxGeometry>
        </mxCell>
        <mxCell id="1AXarEj6DeR1PKGoGcP6-85" value="" style="rounded=0;orthogonalLoop=1;jettySize=auto;html=1;endArrow=none;endFill=0;sketch=0;sourcePerimeterSpacing=0;targetPerimeterSpacing=0;fontColor=#000000;exitX=1;exitY=0.5;exitDx=0;exitDy=0;" edge="1" target="1AXarEj6DeR1PKGoGcP6-86" parent="1" source="1AXarEj6DeR1PKGoGcP6-58">
          <mxGeometry relative="1" as="geometry">
            <mxPoint x="230" y="275" as="sourcePoint" />
          </mxGeometry>
        </mxCell>
        <mxCell id="1AXarEj6DeR1PKGoGcP6-86" value="" style="ellipse;whiteSpace=wrap;html=1;align=center;aspect=fixed;resizable=0;points=[];outlineConnect=0;sketch=0;gradientDirection=north;" vertex="1" parent="1">
          <mxGeometry x="250" y="270" width="10" height="10" as="geometry" />
        </mxCell>
        <mxCell id="1AXarEj6DeR1PKGoGcP6-87" value="" style="rounded=0;orthogonalLoop=1;jettySize=auto;html=1;endArrow=halfCircle;endFill=0;endSize=6;strokeWidth=1;sketch=0;fontColor=#000000;exitX=0;exitY=0.5;exitDx=0;exitDy=0;" edge="1" parent="1" source="1AXarEj6DeR1PKGoGcP6-55">
          <mxGeometry relative="1" as="geometry">
            <mxPoint x="417.5" y="274.8" as="sourcePoint" />
            <mxPoint x="380" y="275" as="targetPoint" />
            <Array as="points" />
          </mxGeometry>
        </mxCell>
        <mxCell id="1AXarEj6DeR1PKGoGcP6-88" value="WebSockets:3000" style="endArrow=open;endSize=12;dashed=1;html=1;rounded=0;fontColor=#000000;" edge="1" parent="1" target="1AXarEj6DeR1PKGoGcP6-86">
          <mxGeometry x="0.0909" y="-15" width="160" relative="1" as="geometry">
            <mxPoint x="390" y="275" as="sourcePoint" />
            <mxPoint x="300" y="274.86" as="targetPoint" />
            <mxPoint as="offset" />
          </mxGeometry>
        </mxCell>
        <mxCell id="1AXarEj6DeR1PKGoGcP6-89" value="" style="rounded=0;orthogonalLoop=1;jettySize=auto;html=1;endArrow=halfCircle;endFill=0;endSize=6;strokeWidth=1;sketch=0;fontColor=#000000;exitX=0.5;exitY=0;exitDx=0;exitDy=0;" edge="1" parent="1" source="1AXarEj6DeR1PKGoGcP6-56">
          <mxGeometry relative="1" as="geometry">
            <mxPoint x="563.75" y="190" as="sourcePoint" />
            <mxPoint x="540" y="170" as="targetPoint" />
            <Array as="points" />
          </mxGeometry>
        </mxCell>
        <mxCell id="1AXarEj6DeR1PKGoGcP6-94" value="" style="rounded=0;orthogonalLoop=1;jettySize=auto;html=1;endArrow=none;endFill=0;sketch=0;sourcePerimeterSpacing=0;targetPerimeterSpacing=0;fontColor=#000000;exitX=0.5;exitY=1;exitDx=0;exitDy=0;" edge="1" parent="1" source="1AXarEj6DeR1PKGoGcP6-57">
          <mxGeometry relative="1" as="geometry">
            <mxPoint x="528.75" y="95" as="sourcePoint" />
            <mxPoint x="540" y="100" as="targetPoint" />
          </mxGeometry>
        </mxCell>
        <mxCell id="1AXarEj6DeR1PKGoGcP6-95" value="" style="ellipse;whiteSpace=wrap;html=1;align=center;aspect=fixed;resizable=0;points=[];outlineConnect=0;sketch=0;gradientDirection=north;" vertex="1" parent="1">
          <mxGeometry x="535" y="100" width="10" height="10" as="geometry" />
        </mxCell>
        <mxCell id="1AXarEj6DeR1PKGoGcP6-96" value="Consultas e inserciones:27017" style="endArrow=open;endSize=12;dashed=1;html=1;rounded=0;fontColor=#000000;" edge="1" parent="1" target="1AXarEj6DeR1PKGoGcP6-95">
          <mxGeometry x="0.1429" y="-90" width="160" relative="1" as="geometry">
            <mxPoint x="540" y="180" as="sourcePoint" />
            <mxPoint x="535" y="130" as="targetPoint" />
            <mxPoint as="offset" />
          </mxGeometry>
        </mxCell>
      </root>
    </mxGraphModel>
  </diagram>
</mxfile>
